<mxfile host="Electron" agent="Mozilla/5.0 (Windows NT 10.0; Win64; x64) AppleWebKit/537.36 (KHTML, like Gecko) draw.io/26.0.4 Chrome/128.0.6613.186 Electron/32.2.5 Safari/537.36" version="26.0.4">
  <diagram id="C5RBs43oDa-KdzZeNtuy" name="Page-1">
    <mxGraphModel dx="1100" dy="902" grid="1" gridSize="10" guides="1" tooltips="1" connect="1" arrows="1" fold="1" page="1" pageScale="1" pageWidth="827" pageHeight="1169" math="0" shadow="0">
      <root>
        <mxCell id="WIyWlLk6GJQsqaUBKTNV-0" />
        <mxCell id="WIyWlLk6GJQsqaUBKTNV-1" parent="WIyWlLk6GJQsqaUBKTNV-0" />
        <mxCell id="gY8Zdy1zJlJDQpIhrQoK-0" value="Program.cs" style="swimlane;fontStyle=1;align=center;verticalAlign=top;childLayout=stackLayout;horizontal=1;startSize=26;horizontalStack=0;resizeParent=1;resizeParentMax=0;resizeLast=0;collapsible=1;marginBottom=0;whiteSpace=wrap;html=1;" parent="WIyWlLk6GJQsqaUBKTNV-1" vertex="1">
          <mxGeometry x="270" y="140" width="220" height="70" as="geometry" />
        </mxCell>
        <mxCell id="gY8Zdy1zJlJDQpIhrQoK-2" value="" style="line;strokeWidth=1;fillColor=none;align=left;verticalAlign=middle;spacingTop=-1;spacingLeft=3;spacingRight=3;rotatable=0;labelPosition=right;points=[];portConstraint=eastwest;strokeColor=inherit;" parent="gY8Zdy1zJlJDQpIhrQoK-0" vertex="1">
          <mxGeometry y="26" width="220" height="8" as="geometry" />
        </mxCell>
        <mxCell id="gY8Zdy1zJlJDQpIhrQoK-3" value="+ method(type): static void Main()" style="text;strokeColor=none;fillColor=none;align=left;verticalAlign=top;spacingLeft=4;spacingRight=4;overflow=hidden;rotatable=0;points=[[0,0.5],[1,0.5]];portConstraint=eastwest;whiteSpace=wrap;html=1;" parent="gY8Zdy1zJlJDQpIhrQoK-0" vertex="1">
          <mxGeometry y="34" width="220" height="36" as="geometry" />
        </mxCell>
        <mxCell id="gY8Zdy1zJlJDQpIhrQoK-4" value="ConsoleOutput.cs" style="swimlane;fontStyle=1;align=center;verticalAlign=top;childLayout=stackLayout;horizontal=1;startSize=26;horizontalStack=0;resizeParent=1;resizeParentMax=0;resizeLast=0;collapsible=1;marginBottom=0;whiteSpace=wrap;html=1;" parent="WIyWlLk6GJQsqaUBKTNV-1" vertex="1">
          <mxGeometry x="370" y="250" width="370" height="70" as="geometry" />
        </mxCell>
        <mxCell id="gY8Zdy1zJlJDQpIhrQoK-6" value="" style="line;strokeWidth=1;fillColor=none;align=left;verticalAlign=middle;spacingTop=-1;spacingLeft=3;spacingRight=3;rotatable=0;labelPosition=right;points=[];portConstraint=eastwest;strokeColor=inherit;" parent="gY8Zdy1zJlJDQpIhrQoK-4" vertex="1">
          <mxGeometry y="26" width="370" height="8" as="geometry" />
        </mxCell>
        <mxCell id="gY8Zdy1zJlJDQpIhrQoK-7" value="+ method(type): public static void GetInput&lt;div&gt;+ method(type): public static void ShowEncryptedCode&lt;/div&gt;" style="text;strokeColor=none;fillColor=none;align=left;verticalAlign=top;spacingLeft=4;spacingRight=4;overflow=hidden;rotatable=0;points=[[0,0.5],[1,0.5]];portConstraint=eastwest;whiteSpace=wrap;html=1;" parent="gY8Zdy1zJlJDQpIhrQoK-4" vertex="1">
          <mxGeometry y="34" width="370" height="36" as="geometry" />
        </mxCell>
        <mxCell id="gY8Zdy1zJlJDQpIhrQoK-8" value="BinarySystem.cs" style="swimlane;fontStyle=1;align=center;verticalAlign=top;childLayout=stackLayout;horizontal=1;startSize=26;horizontalStack=0;resizeParent=1;resizeParentMax=0;resizeLast=0;collapsible=1;marginBottom=0;whiteSpace=wrap;html=1;" parent="WIyWlLk6GJQsqaUBKTNV-1" vertex="1">
          <mxGeometry x="40" y="394" width="276" height="100" as="geometry" />
        </mxCell>
        <mxCell id="gY8Zdy1zJlJDQpIhrQoK-9" value="+ field: public string BinaryConvertedResult" style="text;strokeColor=none;fillColor=none;align=left;verticalAlign=top;spacingLeft=4;spacingRight=4;overflow=hidden;rotatable=0;points=[[0,0.5],[1,0.5]];portConstraint=eastwest;whiteSpace=wrap;html=1;" parent="gY8Zdy1zJlJDQpIhrQoK-8" vertex="1">
          <mxGeometry y="26" width="276" height="26" as="geometry" />
        </mxCell>
        <mxCell id="gY8Zdy1zJlJDQpIhrQoK-10" value="" style="line;strokeWidth=1;fillColor=none;align=left;verticalAlign=middle;spacingTop=-1;spacingLeft=3;spacingRight=3;rotatable=0;labelPosition=right;points=[];portConstraint=eastwest;strokeColor=inherit;" parent="gY8Zdy1zJlJDQpIhrQoK-8" vertex="1">
          <mxGeometry y="52" width="276" height="8" as="geometry" />
        </mxCell>
        <mxCell id="gY8Zdy1zJlJDQpIhrQoK-11" value="+ method(type): public ToBinary&lt;div&gt;+ method(type): public ToDec&lt;br&gt;&lt;div&gt;&lt;br&gt;&lt;/div&gt;&lt;/div&gt;" style="text;strokeColor=none;fillColor=none;align=left;verticalAlign=top;spacingLeft=4;spacingRight=4;overflow=hidden;rotatable=0;points=[[0,0.5],[1,0.5]];portConstraint=eastwest;whiteSpace=wrap;html=1;" parent="gY8Zdy1zJlJDQpIhrQoK-8" vertex="1">
          <mxGeometry y="60" width="276" height="40" as="geometry" />
        </mxCell>
        <mxCell id="gY8Zdy1zJlJDQpIhrQoK-12" value="OctalSystem.cs" style="swimlane;fontStyle=1;align=center;verticalAlign=top;childLayout=stackLayout;horizontal=1;startSize=26;horizontalStack=0;resizeParent=1;resizeParentMax=0;resizeLast=0;collapsible=1;marginBottom=0;whiteSpace=wrap;html=1;" parent="WIyWlLk6GJQsqaUBKTNV-1" vertex="1">
          <mxGeometry x="485" y="480" width="320" height="100" as="geometry" />
        </mxCell>
        <mxCell id="gY8Zdy1zJlJDQpIhrQoK-13" value="+ field: public string OctalConvertedResult" style="text;strokeColor=none;fillColor=none;align=left;verticalAlign=top;spacingLeft=4;spacingRight=4;overflow=hidden;rotatable=0;points=[[0,0.5],[1,0.5]];portConstraint=eastwest;whiteSpace=wrap;html=1;" parent="gY8Zdy1zJlJDQpIhrQoK-12" vertex="1">
          <mxGeometry y="26" width="320" height="26" as="geometry" />
        </mxCell>
        <mxCell id="gY8Zdy1zJlJDQpIhrQoK-14" value="" style="line;strokeWidth=1;fillColor=none;align=left;verticalAlign=middle;spacingTop=-1;spacingLeft=3;spacingRight=3;rotatable=0;labelPosition=right;points=[];portConstraint=eastwest;strokeColor=inherit;" parent="gY8Zdy1zJlJDQpIhrQoK-12" vertex="1">
          <mxGeometry y="52" width="320" height="8" as="geometry" />
        </mxCell>
        <mxCell id="gY8Zdy1zJlJDQpIhrQoK-15" value="+ method(type): public ToOct&lt;div&gt;+ method(type): public ToDec&lt;/div&gt;" style="text;strokeColor=none;fillColor=none;align=left;verticalAlign=top;spacingLeft=4;spacingRight=4;overflow=hidden;rotatable=0;points=[[0,0.5],[1,0.5]];portConstraint=eastwest;whiteSpace=wrap;html=1;" parent="gY8Zdy1zJlJDQpIhrQoK-12" vertex="1">
          <mxGeometry y="60" width="320" height="40" as="geometry" />
        </mxCell>
        <mxCell id="gY8Zdy1zJlJDQpIhrQoK-16" value="DecimalSystem.cs" style="swimlane;fontStyle=1;align=center;verticalAlign=top;childLayout=stackLayout;horizontal=1;startSize=26;horizontalStack=0;resizeParent=1;resizeParentMax=0;resizeLast=0;collapsible=1;marginBottom=0;whiteSpace=wrap;html=1;" parent="WIyWlLk6GJQsqaUBKTNV-1" vertex="1">
          <mxGeometry x="13" y="566" width="330" height="86" as="geometry" />
        </mxCell>
        <mxCell id="gY8Zdy1zJlJDQpIhrQoK-17" value="+ field: public string DecimalConvertedResult" style="text;strokeColor=none;fillColor=none;align=left;verticalAlign=top;spacingLeft=4;spacingRight=4;overflow=hidden;rotatable=0;points=[[0,0.5],[1,0.5]];portConstraint=eastwest;whiteSpace=wrap;html=1;" parent="gY8Zdy1zJlJDQpIhrQoK-16" vertex="1">
          <mxGeometry y="26" width="330" height="26" as="geometry" />
        </mxCell>
        <mxCell id="gY8Zdy1zJlJDQpIhrQoK-18" value="" style="line;strokeWidth=1;fillColor=none;align=left;verticalAlign=middle;spacingTop=-1;spacingLeft=3;spacingRight=3;rotatable=0;labelPosition=right;points=[];portConstraint=eastwest;strokeColor=inherit;" parent="gY8Zdy1zJlJDQpIhrQoK-16" vertex="1">
          <mxGeometry y="52" width="330" height="8" as="geometry" />
        </mxCell>
        <mxCell id="gY8Zdy1zJlJDQpIhrQoK-19" value="+ method(type): public ToDec" style="text;strokeColor=none;fillColor=none;align=left;verticalAlign=top;spacingLeft=4;spacingRight=4;overflow=hidden;rotatable=0;points=[[0,0.5],[1,0.5]];portConstraint=eastwest;whiteSpace=wrap;html=1;" parent="gY8Zdy1zJlJDQpIhrQoK-16" vertex="1">
          <mxGeometry y="60" width="330" height="26" as="geometry" />
        </mxCell>
        <mxCell id="gY8Zdy1zJlJDQpIhrQoK-20" value="HexadecimalSystem.cs" style="swimlane;fontStyle=1;align=center;verticalAlign=top;childLayout=stackLayout;horizontal=1;startSize=26;horizontalStack=0;resizeParent=1;resizeParentMax=0;resizeLast=0;collapsible=1;marginBottom=0;whiteSpace=wrap;html=1;" parent="WIyWlLk6GJQsqaUBKTNV-1" vertex="1">
          <mxGeometry x="490" y="640" width="310" height="100" as="geometry" />
        </mxCell>
        <mxCell id="gY8Zdy1zJlJDQpIhrQoK-21" value="+ field: public string HexadecimalConvertedResult" style="text;strokeColor=none;fillColor=none;align=left;verticalAlign=top;spacingLeft=4;spacingRight=4;overflow=hidden;rotatable=0;points=[[0,0.5],[1,0.5]];portConstraint=eastwest;whiteSpace=wrap;html=1;" parent="gY8Zdy1zJlJDQpIhrQoK-20" vertex="1">
          <mxGeometry y="26" width="310" height="26" as="geometry" />
        </mxCell>
        <mxCell id="gY8Zdy1zJlJDQpIhrQoK-22" value="" style="line;strokeWidth=1;fillColor=none;align=left;verticalAlign=middle;spacingTop=-1;spacingLeft=3;spacingRight=3;rotatable=0;labelPosition=right;points=[];portConstraint=eastwest;strokeColor=inherit;" parent="gY8Zdy1zJlJDQpIhrQoK-20" vertex="1">
          <mxGeometry y="52" width="310" height="8" as="geometry" />
        </mxCell>
        <mxCell id="gY8Zdy1zJlJDQpIhrQoK-23" value="+ method(type): public ToHex&lt;div&gt;+ method(type): public ToDec&lt;/div&gt;" style="text;strokeColor=none;fillColor=none;align=left;verticalAlign=top;spacingLeft=4;spacingRight=4;overflow=hidden;rotatable=0;points=[[0,0.5],[1,0.5]];portConstraint=eastwest;whiteSpace=wrap;html=1;" parent="gY8Zdy1zJlJDQpIhrQoK-20" vertex="1">
          <mxGeometry y="60" width="310" height="40" as="geometry" />
        </mxCell>
        <mxCell id="gY8Zdy1zJlJDQpIhrQoK-24" value="name" style="endArrow=block;endFill=1;html=1;edgeStyle=orthogonalEdgeStyle;align=left;verticalAlign=top;rounded=0;exitX=0.38;exitY=1.05;exitDx=0;exitDy=0;exitPerimeter=0;" parent="WIyWlLk6GJQsqaUBKTNV-1" source="gY8Zdy1zJlJDQpIhrQoK-3" edge="1">
          <mxGeometry x="-1" relative="1" as="geometry">
            <mxPoint x="340" y="250" as="sourcePoint" />
            <mxPoint x="500" y="250" as="targetPoint" />
          </mxGeometry>
        </mxCell>
        <mxCell id="gY8Zdy1zJlJDQpIhrQoK-25" value="1" style="edgeLabel;resizable=0;html=1;align=left;verticalAlign=bottom;" parent="gY8Zdy1zJlJDQpIhrQoK-24" connectable="0" vertex="1">
          <mxGeometry x="-1" relative="1" as="geometry" />
        </mxCell>
        <mxCell id="gY8Zdy1zJlJDQpIhrQoK-26" value="name" style="endArrow=block;endFill=1;html=1;edgeStyle=orthogonalEdgeStyle;align=left;verticalAlign=top;rounded=0;exitX=0.324;exitY=1;exitDx=0;exitDy=0;exitPerimeter=0;entryX=0.474;entryY=0.007;entryDx=0;entryDy=0;entryPerimeter=0;" parent="WIyWlLk6GJQsqaUBKTNV-1" source="gY8Zdy1zJlJDQpIhrQoK-7" target="gY8Zdy1zJlJDQpIhrQoK-12" edge="1">
          <mxGeometry x="-1" relative="1" as="geometry">
            <mxPoint x="480" y="420" as="sourcePoint" />
            <mxPoint x="640" y="420" as="targetPoint" />
            <Array as="points">
              <mxPoint x="400" y="380" />
              <mxPoint x="400" y="430" />
              <mxPoint x="637" y="430" />
            </Array>
          </mxGeometry>
        </mxCell>
        <mxCell id="gY8Zdy1zJlJDQpIhrQoK-27" value="1" style="edgeLabel;resizable=0;html=1;align=left;verticalAlign=bottom;" parent="gY8Zdy1zJlJDQpIhrQoK-26" connectable="0" vertex="1">
          <mxGeometry x="-1" relative="1" as="geometry" />
        </mxCell>
        <mxCell id="gY8Zdy1zJlJDQpIhrQoK-28" value="name" style="endArrow=block;endFill=1;html=1;edgeStyle=orthogonalEdgeStyle;align=left;verticalAlign=top;rounded=0;" parent="WIyWlLk6GJQsqaUBKTNV-1" target="gY8Zdy1zJlJDQpIhrQoK-11" edge="1">
          <mxGeometry x="-1" relative="1" as="geometry">
            <mxPoint x="400" y="430" as="sourcePoint" />
            <mxPoint x="490" y="560" as="targetPoint" />
          </mxGeometry>
        </mxCell>
        <mxCell id="gY8Zdy1zJlJDQpIhrQoK-29" value="1" style="edgeLabel;resizable=0;html=1;align=left;verticalAlign=bottom;" parent="gY8Zdy1zJlJDQpIhrQoK-28" connectable="0" vertex="1">
          <mxGeometry x="-1" relative="1" as="geometry" />
        </mxCell>
        <mxCell id="gY8Zdy1zJlJDQpIhrQoK-30" value="name" style="endArrow=block;endFill=1;html=1;edgeStyle=orthogonalEdgeStyle;align=left;verticalAlign=top;rounded=0;" parent="WIyWlLk6GJQsqaUBKTNV-1" edge="1">
          <mxGeometry x="-1" relative="1" as="geometry">
            <mxPoint x="400" y="470" as="sourcePoint" />
            <mxPoint x="350" y="600" as="targetPoint" />
            <Array as="points">
              <mxPoint x="400" y="600" />
            </Array>
          </mxGeometry>
        </mxCell>
        <mxCell id="gY8Zdy1zJlJDQpIhrQoK-31" value="1" style="edgeLabel;resizable=0;html=1;align=left;verticalAlign=bottom;" parent="gY8Zdy1zJlJDQpIhrQoK-30" connectable="0" vertex="1">
          <mxGeometry x="-1" relative="1" as="geometry" />
        </mxCell>
        <mxCell id="gY8Zdy1zJlJDQpIhrQoK-32" value="name" style="endArrow=block;endFill=1;html=1;edgeStyle=orthogonalEdgeStyle;align=left;verticalAlign=top;rounded=0;entryX=0;entryY=0.5;entryDx=0;entryDy=0;" parent="WIyWlLk6GJQsqaUBKTNV-1" target="gY8Zdy1zJlJDQpIhrQoK-21" edge="1">
          <mxGeometry x="-1" relative="1" as="geometry">
            <mxPoint x="400" y="600" as="sourcePoint" />
            <mxPoint x="490" y="560" as="targetPoint" />
          </mxGeometry>
        </mxCell>
        <mxCell id="gY8Zdy1zJlJDQpIhrQoK-33" value="1" style="edgeLabel;resizable=0;html=1;align=left;verticalAlign=bottom;" parent="gY8Zdy1zJlJDQpIhrQoK-32" connectable="0" vertex="1">
          <mxGeometry x="-1" relative="1" as="geometry" />
        </mxCell>
      </root>
    </mxGraphModel>
  </diagram>
</mxfile>
